<mxfile host="Electron" modified="2025-09-28T20:19:32.934Z" agent="Mozilla/5.0 (Windows NT 10.0; Win64; x64) AppleWebKit/537.36 (KHTML, like Gecko) draw.io/23.1.5 Chrome/120.0.6099.109 Electron/28.1.0 Safari/537.36" etag="GR2E-WZSDs1co8UZPXtH" version="23.1.5" type="device">
  <diagram name="Page-1" id="dw2R8UvdVSDYf6LvLGtP">
    <mxGraphModel dx="2037" dy="825" grid="0" gridSize="10" guides="1" tooltips="1" connect="1" arrows="1" fold="1" page="0" pageScale="1" pageWidth="1169" pageHeight="827" math="0" shadow="0">
      <root>
        <mxCell id="0" />
        <mxCell id="1" parent="0" />
        <mxCell id="IyHDnn9v0o6nhPP4Vegb-7" style="rounded=0;orthogonalLoop=1;jettySize=auto;html=1;" edge="1" parent="1" source="IyHDnn9v0o6nhPP4Vegb-1" target="IyHDnn9v0o6nhPP4Vegb-3">
          <mxGeometry relative="1" as="geometry" />
        </mxCell>
        <mxCell id="IyHDnn9v0o6nhPP4Vegb-11" style="edgeStyle=none;rounded=0;orthogonalLoop=1;jettySize=auto;html=1;" edge="1" parent="1" source="IyHDnn9v0o6nhPP4Vegb-1" target="IyHDnn9v0o6nhPP4Vegb-10">
          <mxGeometry relative="1" as="geometry" />
        </mxCell>
        <mxCell id="IyHDnn9v0o6nhPP4Vegb-20" style="edgeStyle=none;rounded=0;orthogonalLoop=1;jettySize=auto;html=1;" edge="1" parent="1" source="IyHDnn9v0o6nhPP4Vegb-2" target="IyHDnn9v0o6nhPP4Vegb-14">
          <mxGeometry relative="1" as="geometry" />
        </mxCell>
        <mxCell id="IyHDnn9v0o6nhPP4Vegb-2" value="activity.json&lt;br&gt;1 day&lt;br&gt;polar-activity v2" style="rounded=0;whiteSpace=wrap;html=1;fontSize=16;" vertex="1" parent="1">
          <mxGeometry x="440" y="220" width="120" height="60" as="geometry" />
        </mxCell>
        <mxCell id="IyHDnn9v0o6nhPP4Vegb-21" style="edgeStyle=none;rounded=0;orthogonalLoop=1;jettySize=auto;html=1;" edge="1" parent="1" source="IyHDnn9v0o6nhPP4Vegb-3" target="IyHDnn9v0o6nhPP4Vegb-15">
          <mxGeometry relative="1" as="geometry" />
        </mxCell>
        <mxCell id="IyHDnn9v0o6nhPP4Vegb-3" value="track.kml&lt;br&gt;1 session&lt;br&gt;generic-kml v1" style="rounded=0;whiteSpace=wrap;html=1;fontSize=16;" vertex="1" parent="1">
          <mxGeometry x="440" y="330" width="120" height="60" as="geometry" />
        </mxCell>
        <mxCell id="IyHDnn9v0o6nhPP4Vegb-6" style="rounded=0;orthogonalLoop=1;jettySize=auto;html=1;" edge="1" parent="1" source="IyHDnn9v0o6nhPP4Vegb-1" target="IyHDnn9v0o6nhPP4Vegb-2">
          <mxGeometry relative="1" as="geometry" />
        </mxCell>
        <mxCell id="IyHDnn9v0o6nhPP4Vegb-19" style="edgeStyle=none;rounded=0;orthogonalLoop=1;jettySize=auto;html=1;" edge="1" parent="1" source="IyHDnn9v0o6nhPP4Vegb-10" target="IyHDnn9v0o6nhPP4Vegb-18">
          <mxGeometry relative="1" as="geometry" />
        </mxCell>
        <mxCell id="IyHDnn9v0o6nhPP4Vegb-10" value="weights.csv&lt;br&gt;All time&lt;br&gt;fitbit-weights v1" style="rounded=0;whiteSpace=wrap;html=1;fontSize=16;" vertex="1" parent="1">
          <mxGeometry x="440" y="110" width="120" height="60" as="geometry" />
        </mxCell>
        <mxCell id="IyHDnn9v0o6nhPP4Vegb-12" value="ImportIndex" style="swimlane;whiteSpace=wrap;html=1;" vertex="1" parent="1">
          <mxGeometry x="190" y="20" width="200" height="660" as="geometry" />
        </mxCell>
        <mxCell id="IyHDnn9v0o6nhPP4Vegb-1" value="some.zip" style="rounded=0;whiteSpace=wrap;html=1;fontSize=16;" vertex="1" parent="IyHDnn9v0o6nhPP4Vegb-12">
          <mxGeometry x="40" y="200" width="120" height="60" as="geometry" />
        </mxCell>
        <mxCell id="IyHDnn9v0o6nhPP4Vegb-79" value="another.zip" style="rounded=0;whiteSpace=wrap;html=1;fontSize=16;" vertex="1" parent="IyHDnn9v0o6nhPP4Vegb-12">
          <mxGeometry x="40" y="470" width="120" height="60" as="geometry" />
        </mxCell>
        <mxCell id="IyHDnn9v0o6nhPP4Vegb-13" value="ScannerIndex" style="swimlane;whiteSpace=wrap;html=1;" vertex="1" parent="1">
          <mxGeometry x="390" y="20" width="200" height="660" as="geometry" />
        </mxCell>
        <mxCell id="IyHDnn9v0o6nhPP4Vegb-4" value="heartrate.hrm&lt;br&gt;1 session&lt;br&gt;polar-pro-trainer v1" style="rounded=0;whiteSpace=wrap;html=1;fontSize=16;" vertex="1" parent="IyHDnn9v0o6nhPP4Vegb-13">
          <mxGeometry x="20" y="530" width="150" height="60" as="geometry" />
        </mxCell>
        <mxCell id="IyHDnn9v0o6nhPP4Vegb-5" value="steps.csv&lt;br&gt;1 month&lt;br&gt;fitbit-steps v3" style="rounded=0;whiteSpace=wrap;html=1;fontSize=16;" vertex="1" parent="IyHDnn9v0o6nhPP4Vegb-13">
          <mxGeometry x="50" y="420" width="120" height="60" as="geometry" />
        </mxCell>
        <mxCell id="IyHDnn9v0o6nhPP4Vegb-34" style="edgeStyle=none;rounded=0;orthogonalLoop=1;jettySize=auto;html=1;" edge="1" parent="1" source="IyHDnn9v0o6nhPP4Vegb-14" target="IyHDnn9v0o6nhPP4Vegb-32">
          <mxGeometry relative="1" as="geometry">
            <mxPoint x="980" y="250" as="targetPoint" />
          </mxGeometry>
        </mxCell>
        <mxCell id="IyHDnn9v0o6nhPP4Vegb-14" value="activity.json&lt;br&gt;3 series&lt;br&gt;12 metrics" style="rounded=0;whiteSpace=wrap;html=1;fontSize=16;" vertex="1" parent="1">
          <mxGeometry x="640" y="220" width="120" height="60" as="geometry" />
        </mxCell>
        <mxCell id="IyHDnn9v0o6nhPP4Vegb-36" style="edgeStyle=none;rounded=0;orthogonalLoop=1;jettySize=auto;html=1;" edge="1" parent="1" source="IyHDnn9v0o6nhPP4Vegb-15" target="IyHDnn9v0o6nhPP4Vegb-33">
          <mxGeometry relative="1" as="geometry" />
        </mxCell>
        <mxCell id="IyHDnn9v0o6nhPP4Vegb-15" value="track.kml&lt;br&gt;2 series&lt;br&gt;3 metrics&lt;br&gt;5 events" style="rounded=0;whiteSpace=wrap;html=1;fontSize=16;" vertex="1" parent="1">
          <mxGeometry x="640" y="320" width="120" height="80" as="geometry" />
        </mxCell>
        <mxCell id="IyHDnn9v0o6nhPP4Vegb-42" style="edgeStyle=none;rounded=0;orthogonalLoop=1;jettySize=auto;html=1;" edge="1" parent="1" source="IyHDnn9v0o6nhPP4Vegb-16" target="IyHDnn9v0o6nhPP4Vegb-41">
          <mxGeometry relative="1" as="geometry" />
        </mxCell>
        <mxCell id="IyHDnn9v0o6nhPP4Vegb-16" value="heartrate.hrm&lt;br&gt;3 series&lt;br&gt;12 metrics&lt;br&gt;4 events" style="rounded=0;whiteSpace=wrap;html=1;fontSize=16;" vertex="1" parent="1">
          <mxGeometry x="640" y="535" width="120" height="90" as="geometry" />
        </mxCell>
        <mxCell id="IyHDnn9v0o6nhPP4Vegb-17" value="steps.csv&lt;br&gt;31 series&lt;br&gt;62 metrics" style="rounded=0;whiteSpace=wrap;html=1;fontSize=16;" vertex="1" parent="1">
          <mxGeometry x="640" y="440" width="120" height="60" as="geometry" />
        </mxCell>
        <mxCell id="IyHDnn9v0o6nhPP4Vegb-28" style="edgeStyle=none;rounded=0;orthogonalLoop=1;jettySize=auto;html=1;" edge="1" parent="1" source="IyHDnn9v0o6nhPP4Vegb-18" target="IyHDnn9v0o6nhPP4Vegb-27">
          <mxGeometry relative="1" as="geometry" />
        </mxCell>
        <mxCell id="IyHDnn9v0o6nhPP4Vegb-18" value="weights.csv&lt;div&gt;715 metrics&lt;/div&gt;" style="rounded=0;whiteSpace=wrap;html=1;fontSize=16;" vertex="1" parent="1">
          <mxGeometry x="640" y="110" width="120" height="60" as="geometry" />
        </mxCell>
        <mxCell id="IyHDnn9v0o6nhPP4Vegb-22" style="edgeStyle=none;rounded=0;orthogonalLoop=1;jettySize=auto;html=1;" edge="1" parent="1" source="IyHDnn9v0o6nhPP4Vegb-5" target="IyHDnn9v0o6nhPP4Vegb-17">
          <mxGeometry relative="1" as="geometry" />
        </mxCell>
        <mxCell id="IyHDnn9v0o6nhPP4Vegb-23" style="edgeStyle=none;rounded=0;orthogonalLoop=1;jettySize=auto;html=1;" edge="1" parent="1" source="IyHDnn9v0o6nhPP4Vegb-4" target="IyHDnn9v0o6nhPP4Vegb-16">
          <mxGeometry relative="1" as="geometry" />
        </mxCell>
        <mxCell id="IyHDnn9v0o6nhPP4Vegb-24" value="AssimilaterIndex" style="swimlane;whiteSpace=wrap;html=1;" vertex="1" parent="1">
          <mxGeometry x="590" y="20" width="200" height="660" as="geometry" />
        </mxCell>
        <mxCell id="IyHDnn9v0o6nhPP4Vegb-26" value="steps.csv&lt;br&gt;1 month&lt;br&gt;fitbit-steps v3" style="rounded=0;whiteSpace=wrap;html=1;fontSize=16;" vertex="1" parent="IyHDnn9v0o6nhPP4Vegb-24">
          <mxGeometry x="50" y="420" width="120" height="60" as="geometry" />
        </mxCell>
        <mxCell id="IyHDnn9v0o6nhPP4Vegb-27" value="2025-04-12&lt;br&gt;metric: weight" style="rounded=0;whiteSpace=wrap;html=1;fontSize=16;" vertex="1" parent="1">
          <mxGeometry x="850" y="110" width="120" height="60" as="geometry" />
        </mxCell>
        <mxCell id="IyHDnn9v0o6nhPP4Vegb-29" value="2025-04-12&lt;br&gt;metric: weight" style="rounded=0;whiteSpace=wrap;html=1;fontSize=16;" vertex="1" parent="1">
          <mxGeometry x="860" y="120" width="120" height="60" as="geometry" />
        </mxCell>
        <mxCell id="IyHDnn9v0o6nhPP4Vegb-51" style="edgeStyle=none;rounded=0;orthogonalLoop=1;jettySize=auto;html=1;" edge="1" parent="1" source="IyHDnn9v0o6nhPP4Vegb-30" target="IyHDnn9v0o6nhPP4Vegb-50">
          <mxGeometry relative="1" as="geometry" />
        </mxCell>
        <mxCell id="IyHDnn9v0o6nhPP4Vegb-30" value="2025-04-12&lt;br&gt;metric: weight" style="rounded=0;whiteSpace=wrap;html=1;fontSize=16;" vertex="1" parent="1">
          <mxGeometry x="870" y="130" width="120" height="60" as="geometry" />
        </mxCell>
        <mxCell id="IyHDnn9v0o6nhPP4Vegb-49" style="edgeStyle=none;rounded=0;orthogonalLoop=1;jettySize=auto;html=1;" edge="1" parent="1" source="IyHDnn9v0o6nhPP4Vegb-31" target="IyHDnn9v0o6nhPP4Vegb-47">
          <mxGeometry relative="1" as="geometry" />
        </mxCell>
        <mxCell id="IyHDnn9v0o6nhPP4Vegb-31" value="2025-04-12&lt;br&gt;day" style="rounded=0;whiteSpace=wrap;html=1;fontSize=16;" vertex="1" parent="1">
          <mxGeometry x="880" y="140" width="120" height="60" as="geometry" />
        </mxCell>
        <mxCell id="IyHDnn9v0o6nhPP4Vegb-53" style="edgeStyle=none;rounded=0;orthogonalLoop=1;jettySize=auto;html=1;" edge="1" parent="1" source="IyHDnn9v0o6nhPP4Vegb-33" target="IyHDnn9v0o6nhPP4Vegb-52">
          <mxGeometry relative="1" as="geometry" />
        </mxCell>
        <mxCell id="IyHDnn9v0o6nhPP4Vegb-33" value="2010-01-03 12:23&lt;br&gt;session" style="rounded=0;whiteSpace=wrap;html=1;fontSize=16;" vertex="1" parent="1">
          <mxGeometry x="850" y="330" width="150" height="60" as="geometry" />
        </mxCell>
        <mxCell id="IyHDnn9v0o6nhPP4Vegb-37" value="2023-06-18&lt;br&gt;series: steps" style="rounded=0;whiteSpace=wrap;html=1;fontSize=16;" vertex="1" parent="1">
          <mxGeometry x="850" y="440" width="120" height="60" as="geometry" />
        </mxCell>
        <mxCell id="IyHDnn9v0o6nhPP4Vegb-38" value="2023-06-18&lt;br&gt;series: steps" style="rounded=0;whiteSpace=wrap;html=1;fontSize=16;" vertex="1" parent="1">
          <mxGeometry x="860" y="450" width="120" height="60" as="geometry" />
        </mxCell>
        <mxCell id="IyHDnn9v0o6nhPP4Vegb-56" style="edgeStyle=none;rounded=0;orthogonalLoop=1;jettySize=auto;html=1;" edge="1" parent="1" source="IyHDnn9v0o6nhPP4Vegb-39" target="IyHDnn9v0o6nhPP4Vegb-54">
          <mxGeometry relative="1" as="geometry" />
        </mxCell>
        <mxCell id="IyHDnn9v0o6nhPP4Vegb-82" style="edgeStyle=none;rounded=0;orthogonalLoop=1;jettySize=auto;html=1;" edge="1" parent="1" source="IyHDnn9v0o6nhPP4Vegb-39" target="IyHDnn9v0o6nhPP4Vegb-61">
          <mxGeometry relative="1" as="geometry" />
        </mxCell>
        <mxCell id="IyHDnn9v0o6nhPP4Vegb-39" value="2023-06-18&lt;br&gt;day" style="rounded=0;whiteSpace=wrap;html=1;fontSize=16;" vertex="1" parent="1">
          <mxGeometry x="870" y="460" width="120" height="60" as="geometry" />
        </mxCell>
        <mxCell id="IyHDnn9v0o6nhPP4Vegb-40" style="edgeStyle=none;rounded=0;orthogonalLoop=1;jettySize=auto;html=1;" edge="1" parent="1" source="IyHDnn9v0o6nhPP4Vegb-26" target="IyHDnn9v0o6nhPP4Vegb-37">
          <mxGeometry relative="1" as="geometry" />
        </mxCell>
        <mxCell id="IyHDnn9v0o6nhPP4Vegb-57" style="edgeStyle=none;rounded=0;orthogonalLoop=1;jettySize=auto;html=1;" edge="1" parent="1" source="IyHDnn9v0o6nhPP4Vegb-41" target="IyHDnn9v0o6nhPP4Vegb-55">
          <mxGeometry relative="1" as="geometry" />
        </mxCell>
        <mxCell id="IyHDnn9v0o6nhPP4Vegb-78" style="edgeStyle=none;rounded=0;orthogonalLoop=1;jettySize=auto;html=1;" edge="1" parent="1" source="IyHDnn9v0o6nhPP4Vegb-41" target="IyHDnn9v0o6nhPP4Vegb-54">
          <mxGeometry relative="1" as="geometry" />
        </mxCell>
        <mxCell id="IyHDnn9v0o6nhPP4Vegb-41" value="2010-01-03 14:18&lt;br&gt;session" style="rounded=0;whiteSpace=wrap;html=1;fontSize=16;" vertex="1" parent="1">
          <mxGeometry x="850" y="550" width="150" height="60" as="geometry" />
        </mxCell>
        <mxCell id="IyHDnn9v0o6nhPP4Vegb-43" value="ConvergeIndex" style="swimlane;whiteSpace=wrap;html=1;" vertex="1" parent="1">
          <mxGeometry x="790" y="20" width="250" height="660" as="geometry" />
        </mxCell>
        <mxCell id="IyHDnn9v0o6nhPP4Vegb-32" value="2025-04-12&lt;br&gt;day" style="rounded=0;whiteSpace=wrap;html=1;fontSize=16;" vertex="1" parent="IyHDnn9v0o6nhPP4Vegb-43">
          <mxGeometry x="60" y="200" width="120" height="60" as="geometry" />
        </mxCell>
        <mxCell id="IyHDnn9v0o6nhPP4Vegb-46" value="BundleIndex" style="swimlane;whiteSpace=wrap;html=1;" vertex="1" parent="1">
          <mxGeometry x="1040" y="20" width="250" height="660" as="geometry" />
        </mxCell>
        <mxCell id="IyHDnn9v0o6nhPP4Vegb-47" value="2025-04-12&lt;br&gt;day" style="rounded=0;whiteSpace=wrap;html=1;fontSize=16;" vertex="1" parent="IyHDnn9v0o6nhPP4Vegb-46">
          <mxGeometry x="65" y="200" width="120" height="60" as="geometry" />
        </mxCell>
        <mxCell id="IyHDnn9v0o6nhPP4Vegb-50" value="2025-04-11&lt;br&gt;day" style="rounded=0;whiteSpace=wrap;html=1;fontSize=16;" vertex="1" parent="IyHDnn9v0o6nhPP4Vegb-46">
          <mxGeometry x="65" y="100" width="120" height="60" as="geometry" />
        </mxCell>
        <mxCell id="IyHDnn9v0o6nhPP4Vegb-52" value="2010-01-03 12:23&lt;br&gt;session" style="rounded=0;whiteSpace=wrap;html=1;fontSize=16;" vertex="1" parent="IyHDnn9v0o6nhPP4Vegb-46">
          <mxGeometry x="52.5" y="310" width="145" height="60" as="geometry" />
        </mxCell>
        <mxCell id="IyHDnn9v0o6nhPP4Vegb-54" value="2023-06-18&lt;br&gt;day" style="rounded=0;whiteSpace=wrap;html=1;fontSize=16;" vertex="1" parent="IyHDnn9v0o6nhPP4Vegb-46">
          <mxGeometry x="40" y="440" width="145" height="60" as="geometry" />
        </mxCell>
        <mxCell id="IyHDnn9v0o6nhPP4Vegb-55" value="2010-01-03 14:18&lt;br&gt;session" style="rounded=0;whiteSpace=wrap;html=1;fontSize=16;" vertex="1" parent="IyHDnn9v0o6nhPP4Vegb-46">
          <mxGeometry x="40" y="530" width="145" height="60" as="geometry" />
        </mxCell>
        <mxCell id="IyHDnn9v0o6nhPP4Vegb-48" style="edgeStyle=none;rounded=0;orthogonalLoop=1;jettySize=auto;html=1;" edge="1" parent="1" source="IyHDnn9v0o6nhPP4Vegb-32" target="IyHDnn9v0o6nhPP4Vegb-47">
          <mxGeometry relative="1" as="geometry" />
        </mxCell>
        <mxCell id="IyHDnn9v0o6nhPP4Vegb-58" value="2025-04-12&lt;br&gt;day" style="rounded=0;whiteSpace=wrap;html=1;fontSize=16;" vertex="1" parent="1">
          <mxGeometry x="1115" y="230" width="120" height="60" as="geometry" />
        </mxCell>
        <mxCell id="IyHDnn9v0o6nhPP4Vegb-73" style="edgeStyle=none;rounded=0;orthogonalLoop=1;jettySize=auto;html=1;" edge="1" parent="1" source="IyHDnn9v0o6nhPP4Vegb-59" target="IyHDnn9v0o6nhPP4Vegb-67">
          <mxGeometry relative="1" as="geometry" />
        </mxCell>
        <mxCell id="IyHDnn9v0o6nhPP4Vegb-59" value="2025-04-12&lt;br&gt;day" style="rounded=0;whiteSpace=wrap;html=1;fontSize=16;" vertex="1" parent="1">
          <mxGeometry x="1125" y="240" width="120" height="60" as="geometry" />
        </mxCell>
        <mxCell id="IyHDnn9v0o6nhPP4Vegb-72" style="edgeStyle=none;rounded=0;orthogonalLoop=1;jettySize=auto;html=1;" edge="1" parent="1" source="IyHDnn9v0o6nhPP4Vegb-60" target="IyHDnn9v0o6nhPP4Vegb-68">
          <mxGeometry relative="1" as="geometry" />
        </mxCell>
        <mxCell id="IyHDnn9v0o6nhPP4Vegb-60" value="2025-04-11&lt;br&gt;day" style="rounded=0;whiteSpace=wrap;html=1;fontSize=16;" vertex="1" parent="1">
          <mxGeometry x="1115" y="130" width="120" height="60" as="geometry" />
        </mxCell>
        <mxCell id="IyHDnn9v0o6nhPP4Vegb-74" style="edgeStyle=none;rounded=0;orthogonalLoop=1;jettySize=auto;html=1;" edge="1" parent="1" source="IyHDnn9v0o6nhPP4Vegb-61" target="IyHDnn9v0o6nhPP4Vegb-69">
          <mxGeometry relative="1" as="geometry" />
        </mxCell>
        <mxCell id="IyHDnn9v0o6nhPP4Vegb-61" value="2010-01-03 12:23&lt;br&gt;session" style="rounded=0;whiteSpace=wrap;html=1;fontSize=16;" vertex="1" parent="1">
          <mxGeometry x="1102.5" y="340" width="145" height="60" as="geometry" />
        </mxCell>
        <mxCell id="IyHDnn9v0o6nhPP4Vegb-75" style="edgeStyle=none;rounded=0;orthogonalLoop=1;jettySize=auto;html=1;" edge="1" parent="1" source="IyHDnn9v0o6nhPP4Vegb-62" target="IyHDnn9v0o6nhPP4Vegb-70">
          <mxGeometry relative="1" as="geometry" />
        </mxCell>
        <mxCell id="IyHDnn9v0o6nhPP4Vegb-62" value="2023-06-18&lt;br&gt;day" style="rounded=0;whiteSpace=wrap;html=1;fontSize=16;" vertex="1" parent="1">
          <mxGeometry x="1090" y="470" width="145" height="60" as="geometry" />
        </mxCell>
        <mxCell id="IyHDnn9v0o6nhPP4Vegb-63" value="2010-01-03 14:18&lt;br&gt;session" style="rounded=0;whiteSpace=wrap;html=1;fontSize=16;" vertex="1" parent="1">
          <mxGeometry x="1090" y="560" width="145" height="60" as="geometry" />
        </mxCell>
        <mxCell id="IyHDnn9v0o6nhPP4Vegb-64" value="2010-01-03 14:18&lt;br&gt;session" style="rounded=0;whiteSpace=wrap;html=1;fontSize=16;" vertex="1" parent="1">
          <mxGeometry x="1100" y="570" width="145" height="60" as="geometry" />
        </mxCell>
        <mxCell id="IyHDnn9v0o6nhPP4Vegb-76" style="edgeStyle=none;rounded=0;orthogonalLoop=1;jettySize=auto;html=1;" edge="1" parent="1" source="IyHDnn9v0o6nhPP4Vegb-65" target="IyHDnn9v0o6nhPP4Vegb-71">
          <mxGeometry relative="1" as="geometry" />
        </mxCell>
        <mxCell id="IyHDnn9v0o6nhPP4Vegb-65" value="2010-01-03 14:18&lt;br&gt;session" style="rounded=0;whiteSpace=wrap;html=1;fontSize=16;" vertex="1" parent="1">
          <mxGeometry x="1110" y="580" width="145" height="60" as="geometry" />
        </mxCell>
        <mxCell id="IyHDnn9v0o6nhPP4Vegb-66" value="UnifiedIndex" style="swimlane;whiteSpace=wrap;html=1;" vertex="1" parent="1">
          <mxGeometry x="1290" y="20" width="250" height="660" as="geometry" />
        </mxCell>
        <mxCell id="IyHDnn9v0o6nhPP4Vegb-67" value="2025-04-12&lt;br&gt;day" style="rounded=0;whiteSpace=wrap;html=1;fontSize=16;" vertex="1" parent="IyHDnn9v0o6nhPP4Vegb-66">
          <mxGeometry x="65" y="220" width="120" height="60" as="geometry" />
        </mxCell>
        <mxCell id="IyHDnn9v0o6nhPP4Vegb-68" value="2025-04-11&lt;br&gt;day" style="rounded=0;whiteSpace=wrap;html=1;fontSize=16;" vertex="1" parent="IyHDnn9v0o6nhPP4Vegb-66">
          <mxGeometry x="65" y="110" width="120" height="60" as="geometry" />
        </mxCell>
        <mxCell id="IyHDnn9v0o6nhPP4Vegb-69" value="2010-01-03 12:23&lt;br&gt;session" style="rounded=0;whiteSpace=wrap;html=1;fontSize=16;" vertex="1" parent="IyHDnn9v0o6nhPP4Vegb-66">
          <mxGeometry x="52.5" y="320" width="145" height="60" as="geometry" />
        </mxCell>
        <mxCell id="IyHDnn9v0o6nhPP4Vegb-70" value="2023-06-18&lt;br&gt;day" style="rounded=0;whiteSpace=wrap;html=1;fontSize=16;" vertex="1" parent="IyHDnn9v0o6nhPP4Vegb-66">
          <mxGeometry x="40" y="450" width="145" height="60" as="geometry" />
        </mxCell>
        <mxCell id="IyHDnn9v0o6nhPP4Vegb-71" value="2010-01-03 14:18&lt;br&gt;session" style="rounded=0;whiteSpace=wrap;html=1;fontSize=16;" vertex="1" parent="IyHDnn9v0o6nhPP4Vegb-66">
          <mxGeometry x="40" y="560" width="145" height="60" as="geometry" />
        </mxCell>
        <mxCell id="IyHDnn9v0o6nhPP4Vegb-80" style="edgeStyle=none;rounded=0;orthogonalLoop=1;jettySize=auto;html=1;" edge="1" parent="1" source="IyHDnn9v0o6nhPP4Vegb-79" target="IyHDnn9v0o6nhPP4Vegb-5">
          <mxGeometry relative="1" as="geometry" />
        </mxCell>
        <mxCell id="IyHDnn9v0o6nhPP4Vegb-81" style="edgeStyle=none;rounded=0;orthogonalLoop=1;jettySize=auto;html=1;" edge="1" parent="1" source="IyHDnn9v0o6nhPP4Vegb-79" target="IyHDnn9v0o6nhPP4Vegb-4">
          <mxGeometry relative="1" as="geometry" />
        </mxCell>
      </root>
    </mxGraphModel>
  </diagram>
</mxfile>
